<svg width="512" height="512" viewBox="0 0 512 512" fill="none" xmlns="http://www.w3.org/2000/svg">
<rect width="512" height="512" rx="44" fill="#151518"/>
<g transform="translate(139 139) scale(7.3125)">
<path d="M31.1922 10.9804C29.9974 7.36421 27.5519 4.29282 24.2953 2.31831C21.0386 0.343808 17.1845 -0.404305 13.4257 0.208456C9.66685 0.821217 6.24986 2.75466 3.78894 5.66123C1.32803 8.56781 -0.0154078 12.2569 0.000133216 16.0653C0.0156742 19.8737 1.38917 23.5517 3.87373 26.4381C6.35828 29.3245 9.79094 31.23 13.5546 31.812C17.3183 32.3941 21.1662 31.6145 24.4066 29.6135C27.6471 27.6125 30.0674 24.5213 31.2327 20.8955L22.0778 17.9533C21.6129 19.4 20.6472 20.6334 19.3542 21.4318C18.0613 22.2302 16.526 22.5412 15.0243 22.309C13.5226 22.0767 12.153 21.3165 11.1616 20.1648C10.1703 19.0131 9.62227 17.5456 9.61607 16.0261C9.60987 14.5065 10.1459 13.0346 11.1278 11.8748C12.1097 10.7151 13.4731 9.94368 14.9728 9.69919C16.4726 9.4547 18.0104 9.7532 19.3098 10.541C20.6092 11.3288 21.585 12.5543 22.0617 13.9972L31.1922 10.9804Z" fill="white"/>
</g>
</svg>
